<?xml version="1.0" encoding="UTF-8" standalone="no"?>
<svg
   xmlns:dc="http://purl.org/dc/elements/1.1/"
   xmlns:cc="http://creativecommons.org/ns#"
   xmlns:rdf="http://www.w3.org/1999/02/22-rdf-syntax-ns#"
   xmlns:svg="http://www.w3.org/2000/svg"
   xmlns="http://www.w3.org/2000/svg"
   xmlns:sodipodi="http://sodipodi.sourceforge.net/DTD/sodipodi-0.dtd"
   xmlns:inkscape="http://www.inkscape.org/namespaces/inkscape"
   width="297mm"
   height="210mm"
   viewBox="0 0 297 210"
   version="1.1"
   id="svg8"
   inkscape:version="1.0.2 (e86c870879, 2021-01-15)"
   sodipodi:docname="a4_16_by_9.svg">
  <defs
     id="defs2" />
  <sodipodi:namedview
     id="base"
     pagecolor="#ffffff"
     bordercolor="#666666"
     borderopacity="1.0"
     inkscape:pageopacity="0.0"
     inkscape:pageshadow="2"
     inkscape:zoom="0.92604167"
     inkscape:cx="558.02025"
     inkscape:cy="396.85039"
     inkscape:document-units="mm"
     inkscape:current-layer="layer2"
     inkscape:document-rotation="0"
     showgrid="false"
     inkscape:showpageshadow="false"
     inkscape:window-width="1749"
     inkscape:window-height="974"
     inkscape:window-x="76"
     inkscape:window-y="50"
     inkscape:window-maximized="1" />
  <metadata
     id="metadata5">
    <rdf:RDF>
      <cc:Work
         rdf:about="">
        <dc:format>image/svg+xml</dc:format>
        <dc:type
           rdf:resource="http://purl.org/dc/dcmitype/StillImage" />
        <dc:title></dc:title>
      </cc:Work>
    </rdf:RDF>
  </metadata>
  <g
     inkscape:label="Layer 1"
     inkscape:groupmode="layer"
     id="layer1">
    <g
       style="shape-rendering:crispEdges"
       id="g1951"
       transform="matrix(-1.5450112,0,0,-1.5450112,288.73575,183.78645)">
      <rect
         x="0"
         y="0"
         width="6"
         height="6"
         fill="#000000"
         id="rect1892" />
      <rect
         width="1"
         height="1"
         x="1"
         y="1"
         fill="#ffffff"
         id="rect1894" />
      <rect
         width="1"
         height="1"
         x="2"
         y="1"
         fill="#000000"
         id="rect1896" />
      <rect
         width="1"
         height="1"
         x="3"
         y="1"
         fill="#ffffff"
         id="rect1898" />
      <rect
         width="1"
         height="1"
         x="4"
         y="1"
         fill="#ffffff"
         id="rect1900" />
      <rect
         width="1"
         height="1"
         x="1"
         y="2"
         fill="#000000"
         id="rect1902" />
      <rect
         width="1"
         height="1"
         x="2"
         y="2"
         fill="#ffffff"
         id="rect1904" />
      <rect
         width="1"
         height="1"
         x="3"
         y="2"
         fill="#000000"
         id="rect1906" />
      <rect
         width="1"
         height="1"
         x="4"
         y="2"
         fill="#ffffff"
         id="rect1908" />
      <rect
         width="1"
         height="1"
         x="1"
         y="3"
         fill="#000000"
         id="rect1910" />
      <rect
         width="1"
         height="1"
         x="2"
         y="3"
         fill="#000000"
         id="rect1912" />
      <rect
         width="1"
         height="1"
         x="3"
         y="3"
         fill="#ffffff"
         id="rect1914" />
      <rect
         width="1"
         height="1"
         x="4"
         y="3"
         fill="#ffffff"
         id="rect1916" />
      <rect
         width="1"
         height="1"
         x="1"
         y="4"
         fill="#000000"
         id="rect1918" />
      <rect
         width="1"
         height="1"
         x="2"
         y="4"
         fill="#000000"
         id="rect1920" />
      <rect
         width="1"
         height="1"
         x="3"
         y="4"
         fill="#ffffff"
         id="rect1922" />
      <rect
         width="1"
         height="1"
         x="4"
         y="4"
         fill="#000000"
         id="rect1924" />
    </g>
    <g
       style="shape-rendering:crispEdges"
       id="g2986"
       transform="matrix(-1.5450112,0,0,-1.5450112,17.534313,183.78645)">
      <rect
         x="0"
         y="0"
         width="6"
         height="6"
         fill="#000000"
         id="rect2927" />
      <rect
         width="1"
         height="1"
         x="1"
         y="1"
         fill="#000000"
         id="rect2929" />
      <rect
         width="1"
         height="1"
         x="2"
         y="1"
         fill="#000000"
         id="rect2931" />
      <rect
         width="1"
         height="1"
         x="3"
         y="1"
         fill="#000000"
         id="rect2933" />
      <rect
         width="1"
         height="1"
         x="4"
         y="1"
         fill="#000000"
         id="rect2935" />
      <rect
         width="1"
         height="1"
         x="1"
         y="2"
         fill="#ffffff"
         id="rect2937" />
      <rect
         width="1"
         height="1"
         x="2"
         y="2"
         fill="#ffffff"
         id="rect2939" />
      <rect
         width="1"
         height="1"
         x="3"
         y="2"
         fill="#ffffff"
         id="rect2941" />
      <rect
         width="1"
         height="1"
         x="4"
         y="2"
         fill="#ffffff"
         id="rect2943" />
      <rect
         width="1"
         height="1"
         x="1"
         y="3"
         fill="#ffffff"
         id="rect2945" />
      <rect
         width="1"
         height="1"
         x="2"
         y="3"
         fill="#000000"
         id="rect2947" />
      <rect
         width="1"
         height="1"
         x="3"
         y="3"
         fill="#000000"
         id="rect2949" />
      <rect
         width="1"
         height="1"
         x="4"
         y="3"
         fill="#ffffff"
         id="rect2951" />
      <rect
         width="1"
         height="1"
         x="1"
         y="4"
         fill="#ffffff"
         id="rect2953" />
      <rect
         width="1"
         height="1"
         x="2"
         y="4"
         fill="#000000"
         id="rect2955" />
      <rect
         width="1"
         height="1"
         x="3"
         y="4"
         fill="#ffffff"
         id="rect2957" />
      <rect
         width="1"
         height="1"
         x="4"
         y="4"
         fill="#000000"
         id="rect2959" />
    </g>
    <g
       style="shape-rendering:crispEdges"
       id="g4021"
       transform="matrix(-1.5450112,0,0,-1.5450112,288.73575,35.483616)">
      <rect
         x="0"
         y="0"
         width="6"
         height="6"
         fill="#000000"
         id="rect3962" />
      <rect
         width="1"
         height="1"
         x="1"
         y="1"
         fill="#000000"
         id="rect3964" />
      <rect
         width="1"
         height="1"
         x="2"
         y="1"
         fill="#000000"
         id="rect3966" />
      <rect
         width="1"
         height="1"
         x="3"
         y="1"
         fill="#ffffff"
         id="rect3968" />
      <rect
         width="1"
         height="1"
         x="4"
         y="1"
         fill="#ffffff"
         id="rect3970" />
      <rect
         width="1"
         height="1"
         x="1"
         y="2"
         fill="#000000"
         id="rect3972" />
      <rect
         width="1"
         height="1"
         x="2"
         y="2"
         fill="#000000"
         id="rect3974" />
      <rect
         width="1"
         height="1"
         x="3"
         y="2"
         fill="#ffffff"
         id="rect3976" />
      <rect
         width="1"
         height="1"
         x="4"
         y="2"
         fill="#ffffff"
         id="rect3978" />
      <rect
         width="1"
         height="1"
         x="1"
         y="3"
         fill="#000000"
         id="rect3980" />
      <rect
         width="1"
         height="1"
         x="2"
         y="3"
         fill="#000000"
         id="rect3982" />
      <rect
         width="1"
         height="1"
         x="3"
         y="3"
         fill="#ffffff"
         id="rect3984" />
      <rect
         width="1"
         height="1"
         x="4"
         y="3"
         fill="#000000"
         id="rect3986" />
      <rect
         width="1"
         height="1"
         x="1"
         y="4"
         fill="#ffffff"
         id="rect3988" />
      <rect
         width="1"
         height="1"
         x="2"
         y="4"
         fill="#ffffff"
         id="rect3990" />
      <rect
         width="1"
         height="1"
         x="3"
         y="4"
         fill="#000000"
         id="rect3992" />
      <rect
         width="1"
         height="1"
         x="4"
         y="4"
         fill="#ffffff"
         id="rect3994" />
    </g>
    <g
       style="shape-rendering:crispEdges"
       id="g7107"
       transform="matrix(-1.5450112,0,0,-1.5450112,17.534313,35.483616)">
      <rect
         x="0"
         y="0"
         width="6"
         height="6"
         fill="#000000"
         id="rect7048" />
      <rect
         width="1"
         height="1"
         x="1"
         y="1"
         fill="#ffffff"
         id="rect7050" />
      <rect
         width="1"
         height="1"
         x="2"
         y="1"
         fill="#000000"
         id="rect7052" />
      <rect
         width="1"
         height="1"
         x="3"
         y="1"
         fill="#000000"
         id="rect7054" />
      <rect
         width="1"
         height="1"
         x="4"
         y="1"
         fill="#ffffff"
         id="rect7056" />
      <rect
         width="1"
         height="1"
         x="1"
         y="2"
         fill="#ffffff"
         id="rect7058" />
      <rect
         width="1"
         height="1"
         x="2"
         y="2"
         fill="#000000"
         id="rect7060" />
      <rect
         width="1"
         height="1"
         x="3"
         y="2"
         fill="#000000"
         id="rect7062" />
      <rect
         width="1"
         height="1"
         x="4"
         y="2"
         fill="#ffffff"
         id="rect7064" />
      <rect
         width="1"
         height="1"
         x="1"
         y="3"
         fill="#000000"
         id="rect7066" />
      <rect
         width="1"
         height="1"
         x="2"
         y="3"
         fill="#ffffff"
         id="rect7068" />
      <rect
         width="1"
         height="1"
         x="3"
         y="3"
         fill="#000000"
         id="rect7070" />
      <rect
         width="1"
         height="1"
         x="4"
         y="3"
         fill="#000000"
         id="rect7072" />
      <rect
         width="1"
         height="1"
         x="1"
         y="4"
         fill="#000000"
         id="rect7074" />
      <rect
         width="1"
         height="1"
         x="2"
         y="4"
         fill="#ffffff"
         id="rect7076" />
      <rect
         width="1"
         height="1"
         x="3"
         y="4"
         fill="#ffffff"
         id="rect7078" />
      <rect
         width="1"
         height="1"
         x="4"
         y="4"
         fill="#000000"
         id="rect7080" />
    </g>
    <circle
       style="fill:none;stroke:#000000;stroke-width:0.264583"
       id="path173"
       cx="-5.7070661"
       cy="-24.346252"
       r="1.8107575"
       transform="scale(-1)" />
  </g>
  <g
     inkscape:groupmode="layer"
     id="layer2"
     inkscape:label="Layer 2">
    <rect
       style="fill:none;stroke-width:1.3;stroke:none;stroke-opacity:1"
       id="rect228"
       width="280.4715"
       height="157.57291"
       x="8.264246"
       y="26.213549" />
  </g>
</svg>
