<?xml version="1.0" encoding="UTF-8"?>
<svg version="1.1" baseProfile="tiny" xmlns="http://www.w3.org/2000/svg" width="294" height="294">
<rect shape-rendering="optimizeSpeed"  x="0" y="0" width="294" height="294" fill="white" />
<rect shape-rendering="optimizeSpeed"  x="0" y="0" width="14" height="14" fill="black" />
<rect shape-rendering="optimizeSpeed"  x="14" y="0" width="14" height="14" fill="black" />
<rect shape-rendering="optimizeSpeed"  x="28" y="0" width="14" height="14" fill="black" />
<rect shape-rendering="optimizeSpeed"  x="42" y="0" width="14" height="14" fill="black" />
<rect shape-rendering="optimizeSpeed"  x="56" y="0" width="14" height="14" fill="black" />
<rect shape-rendering="optimizeSpeed"  x="70" y="0" width="14" height="14" fill="black" />
<rect shape-rendering="optimizeSpeed"  x="84" y="0" width="14" height="14" fill="black" />
<rect shape-rendering="optimizeSpeed"  x="126" y="0" width="14" height="14" fill="black" />
<rect shape-rendering="optimizeSpeed"  x="154" y="0" width="14" height="14" fill="black" />
<rect shape-rendering="optimizeSpeed"  x="168" y="0" width="14" height="14" fill="black" />
<rect shape-rendering="optimizeSpeed"  x="196" y="0" width="14" height="14" fill="black" />
<rect shape-rendering="optimizeSpeed"  x="210" y="0" width="14" height="14" fill="black" />
<rect shape-rendering="optimizeSpeed"  x="224" y="0" width="14" height="14" fill="black" />
<rect shape-rendering="optimizeSpeed"  x="238" y="0" width="14" height="14" fill="black" />
<rect shape-rendering="optimizeSpeed"  x="252" y="0" width="14" height="14" fill="black" />
<rect shape-rendering="optimizeSpeed"  x="266" y="0" width="14" height="14" fill="black" />
<rect shape-rendering="optimizeSpeed"  x="280" y="0" width="14" height="14" fill="black" />
<rect shape-rendering="optimizeSpeed"  x="0" y="14" width="14" height="14" fill="black" />
<rect shape-rendering="optimizeSpeed"  x="84" y="14" width="14" height="14" fill="black" />
<rect shape-rendering="optimizeSpeed"  x="126" y="14" width="14" height="14" fill="black" />
<rect shape-rendering="optimizeSpeed"  x="140" y="14" width="14" height="14" fill="black" />
<rect shape-rendering="optimizeSpeed"  x="154" y="14" width="14" height="14" fill="black" />
<rect shape-rendering="optimizeSpeed"  x="196" y="14" width="14" height="14" fill="black" />
<rect shape-rendering="optimizeSpeed"  x="280" y="14" width="14" height="14" fill="black" />
<rect shape-rendering="optimizeSpeed"  x="0" y="28" width="14" height="14" fill="black" />
<rect shape-rendering="optimizeSpeed"  x="28" y="28" width="14" height="14" fill="black" />
<rect shape-rendering="optimizeSpeed"  x="42" y="28" width="14" height="14" fill="black" />
<rect shape-rendering="optimizeSpeed"  x="56" y="28" width="14" height="14" fill="black" />
<rect shape-rendering="optimizeSpeed"  x="84" y="28" width="14" height="14" fill="black" />
<rect shape-rendering="optimizeSpeed"  x="112" y="28" width="14" height="14" fill="black" />
<rect shape-rendering="optimizeSpeed"  x="126" y="28" width="14" height="14" fill="black" />
<rect shape-rendering="optimizeSpeed"  x="154" y="28" width="14" height="14" fill="black" />
<rect shape-rendering="optimizeSpeed"  x="168" y="28" width="14" height="14" fill="black" />
<rect shape-rendering="optimizeSpeed"  x="196" y="28" width="14" height="14" fill="black" />
<rect shape-rendering="optimizeSpeed"  x="224" y="28" width="14" height="14" fill="black" />
<rect shape-rendering="optimizeSpeed"  x="238" y="28" width="14" height="14" fill="black" />
<rect shape-rendering="optimizeSpeed"  x="252" y="28" width="14" height="14" fill="black" />
<rect shape-rendering="optimizeSpeed"  x="280" y="28" width="14" height="14" fill="black" />
<rect shape-rendering="optimizeSpeed"  x="0" y="42" width="14" height="14" fill="black" />
<rect shape-rendering="optimizeSpeed"  x="28" y="42" width="14" height="14" fill="black" />
<rect shape-rendering="optimizeSpeed"  x="42" y="42" width="14" height="14" fill="black" />
<rect shape-rendering="optimizeSpeed"  x="56" y="42" width="14" height="14" fill="black" />
<rect shape-rendering="optimizeSpeed"  x="84" y="42" width="14" height="14" fill="black" />
<rect shape-rendering="optimizeSpeed"  x="126" y="42" width="14" height="14" fill="black" />
<rect shape-rendering="optimizeSpeed"  x="154" y="42" width="14" height="14" fill="black" />
<rect shape-rendering="optimizeSpeed"  x="196" y="42" width="14" height="14" fill="black" />
<rect shape-rendering="optimizeSpeed"  x="224" y="42" width="14" height="14" fill="black" />
<rect shape-rendering="optimizeSpeed"  x="238" y="42" width="14" height="14" fill="black" />
<rect shape-rendering="optimizeSpeed"  x="252" y="42" width="14" height="14" fill="black" />
<rect shape-rendering="optimizeSpeed"  x="280" y="42" width="14" height="14" fill="black" />
<rect shape-rendering="optimizeSpeed"  x="0" y="56" width="14" height="14" fill="black" />
<rect shape-rendering="optimizeSpeed"  x="28" y="56" width="14" height="14" fill="black" />
<rect shape-rendering="optimizeSpeed"  x="42" y="56" width="14" height="14" fill="black" />
<rect shape-rendering="optimizeSpeed"  x="56" y="56" width="14" height="14" fill="black" />
<rect shape-rendering="optimizeSpeed"  x="84" y="56" width="14" height="14" fill="black" />
<rect shape-rendering="optimizeSpeed"  x="140" y="56" width="14" height="14" fill="black" />
<rect shape-rendering="optimizeSpeed"  x="168" y="56" width="14" height="14" fill="black" />
<rect shape-rendering="optimizeSpeed"  x="196" y="56" width="14" height="14" fill="black" />
<rect shape-rendering="optimizeSpeed"  x="224" y="56" width="14" height="14" fill="black" />
<rect shape-rendering="optimizeSpeed"  x="238" y="56" width="14" height="14" fill="black" />
<rect shape-rendering="optimizeSpeed"  x="252" y="56" width="14" height="14" fill="black" />
<rect shape-rendering="optimizeSpeed"  x="280" y="56" width="14" height="14" fill="black" />
<rect shape-rendering="optimizeSpeed"  x="0" y="70" width="14" height="14" fill="black" />
<rect shape-rendering="optimizeSpeed"  x="84" y="70" width="14" height="14" fill="black" />
<rect shape-rendering="optimizeSpeed"  x="168" y="70" width="14" height="14" fill="black" />
<rect shape-rendering="optimizeSpeed"  x="196" y="70" width="14" height="14" fill="black" />
<rect shape-rendering="optimizeSpeed"  x="280" y="70" width="14" height="14" fill="black" />
<rect shape-rendering="optimizeSpeed"  x="0" y="84" width="14" height="14" fill="black" />
<rect shape-rendering="optimizeSpeed"  x="14" y="84" width="14" height="14" fill="black" />
<rect shape-rendering="optimizeSpeed"  x="28" y="84" width="14" height="14" fill="black" />
<rect shape-rendering="optimizeSpeed"  x="42" y="84" width="14" height="14" fill="black" />
<rect shape-rendering="optimizeSpeed"  x="56" y="84" width="14" height="14" fill="black" />
<rect shape-rendering="optimizeSpeed"  x="70" y="84" width="14" height="14" fill="black" />
<rect shape-rendering="optimizeSpeed"  x="84" y="84" width="14" height="14" fill="black" />
<rect shape-rendering="optimizeSpeed"  x="112" y="84" width="14" height="14" fill="black" />
<rect shape-rendering="optimizeSpeed"  x="140" y="84" width="14" height="14" fill="black" />
<rect shape-rendering="optimizeSpeed"  x="168" y="84" width="14" height="14" fill="black" />
<rect shape-rendering="optimizeSpeed"  x="196" y="84" width="14" height="14" fill="black" />
<rect shape-rendering="optimizeSpeed"  x="210" y="84" width="14" height="14" fill="black" />
<rect shape-rendering="optimizeSpeed"  x="224" y="84" width="14" height="14" fill="black" />
<rect shape-rendering="optimizeSpeed"  x="238" y="84" width="14" height="14" fill="black" />
<rect shape-rendering="optimizeSpeed"  x="252" y="84" width="14" height="14" fill="black" />
<rect shape-rendering="optimizeSpeed"  x="266" y="84" width="14" height="14" fill="black" />
<rect shape-rendering="optimizeSpeed"  x="280" y="84" width="14" height="14" fill="black" />
<rect shape-rendering="optimizeSpeed"  x="112" y="98" width="14" height="14" fill="black" />
<rect shape-rendering="optimizeSpeed"  x="126" y="98" width="14" height="14" fill="black" />
<rect shape-rendering="optimizeSpeed"  x="154" y="98" width="14" height="14" fill="black" />
<rect shape-rendering="optimizeSpeed"  x="168" y="98" width="14" height="14" fill="black" />
<rect shape-rendering="optimizeSpeed"  x="0" y="112" width="14" height="14" fill="black" />
<rect shape-rendering="optimizeSpeed"  x="14" y="112" width="14" height="14" fill="black" />
<rect shape-rendering="optimizeSpeed"  x="28" y="112" width="14" height="14" fill="black" />
<rect shape-rendering="optimizeSpeed"  x="56" y="112" width="14" height="14" fill="black" />
<rect shape-rendering="optimizeSpeed"  x="70" y="112" width="14" height="14" fill="black" />
<rect shape-rendering="optimizeSpeed"  x="84" y="112" width="14" height="14" fill="black" />
<rect shape-rendering="optimizeSpeed"  x="98" y="112" width="14" height="14" fill="black" />
<rect shape-rendering="optimizeSpeed"  x="112" y="112" width="14" height="14" fill="black" />
<rect shape-rendering="optimizeSpeed"  x="126" y="112" width="14" height="14" fill="black" />
<rect shape-rendering="optimizeSpeed"  x="140" y="112" width="14" height="14" fill="black" />
<rect shape-rendering="optimizeSpeed"  x="154" y="112" width="14" height="14" fill="black" />
<rect shape-rendering="optimizeSpeed"  x="182" y="112" width="14" height="14" fill="black" />
<rect shape-rendering="optimizeSpeed"  x="196" y="112" width="14" height="14" fill="black" />
<rect shape-rendering="optimizeSpeed"  x="252" y="112" width="14" height="14" fill="black" />
<rect shape-rendering="optimizeSpeed"  x="0" y="126" width="14" height="14" fill="black" />
<rect shape-rendering="optimizeSpeed"  x="14" y="126" width="14" height="14" fill="black" />
<rect shape-rendering="optimizeSpeed"  x="98" y="126" width="14" height="14" fill="black" />
<rect shape-rendering="optimizeSpeed"  x="196" y="126" width="14" height="14" fill="black" />
<rect shape-rendering="optimizeSpeed"  x="238" y="126" width="14" height="14" fill="black" />
<rect shape-rendering="optimizeSpeed"  x="266" y="126" width="14" height="14" fill="black" />
<rect shape-rendering="optimizeSpeed"  x="280" y="126" width="14" height="14" fill="black" />
<rect shape-rendering="optimizeSpeed"  x="42" y="140" width="14" height="14" fill="black" />
<rect shape-rendering="optimizeSpeed"  x="84" y="140" width="14" height="14" fill="black" />
<rect shape-rendering="optimizeSpeed"  x="126" y="140" width="14" height="14" fill="black" />
<rect shape-rendering="optimizeSpeed"  x="140" y="140" width="14" height="14" fill="black" />
<rect shape-rendering="optimizeSpeed"  x="168" y="140" width="14" height="14" fill="black" />
<rect shape-rendering="optimizeSpeed"  x="224" y="140" width="14" height="14" fill="black" />
<rect shape-rendering="optimizeSpeed"  x="14" y="154" width="14" height="14" fill="black" />
<rect shape-rendering="optimizeSpeed"  x="28" y="154" width="14" height="14" fill="black" />
<rect shape-rendering="optimizeSpeed"  x="56" y="154" width="14" height="14" fill="black" />
<rect shape-rendering="optimizeSpeed"  x="70" y="154" width="14" height="14" fill="black" />
<rect shape-rendering="optimizeSpeed"  x="98" y="154" width="14" height="14" fill="black" />
<rect shape-rendering="optimizeSpeed"  x="112" y="154" width="14" height="14" fill="black" />
<rect shape-rendering="optimizeSpeed"  x="126" y="154" width="14" height="14" fill="black" />
<rect shape-rendering="optimizeSpeed"  x="140" y="154" width="14" height="14" fill="black" />
<rect shape-rendering="optimizeSpeed"  x="196" y="154" width="14" height="14" fill="black" />
<rect shape-rendering="optimizeSpeed"  x="252" y="154" width="14" height="14" fill="black" />
<rect shape-rendering="optimizeSpeed"  x="280" y="154" width="14" height="14" fill="black" />
<rect shape-rendering="optimizeSpeed"  x="70" y="168" width="14" height="14" fill="black" />
<rect shape-rendering="optimizeSpeed"  x="84" y="168" width="14" height="14" fill="black" />
<rect shape-rendering="optimizeSpeed"  x="98" y="168" width="14" height="14" fill="black" />
<rect shape-rendering="optimizeSpeed"  x="112" y="168" width="14" height="14" fill="black" />
<rect shape-rendering="optimizeSpeed"  x="126" y="168" width="14" height="14" fill="black" />
<rect shape-rendering="optimizeSpeed"  x="140" y="168" width="14" height="14" fill="black" />
<rect shape-rendering="optimizeSpeed"  x="168" y="168" width="14" height="14" fill="black" />
<rect shape-rendering="optimizeSpeed"  x="196" y="168" width="14" height="14" fill="black" />
<rect shape-rendering="optimizeSpeed"  x="224" y="168" width="14" height="14" fill="black" />
<rect shape-rendering="optimizeSpeed"  x="252" y="168" width="14" height="14" fill="black" />
<rect shape-rendering="optimizeSpeed"  x="266" y="168" width="14" height="14" fill="black" />
<rect shape-rendering="optimizeSpeed"  x="112" y="182" width="14" height="14" fill="black" />
<rect shape-rendering="optimizeSpeed"  x="154" y="182" width="14" height="14" fill="black" />
<rect shape-rendering="optimizeSpeed"  x="182" y="182" width="14" height="14" fill="black" />
<rect shape-rendering="optimizeSpeed"  x="210" y="182" width="14" height="14" fill="black" />
<rect shape-rendering="optimizeSpeed"  x="238" y="182" width="14" height="14" fill="black" />
<rect shape-rendering="optimizeSpeed"  x="0" y="196" width="14" height="14" fill="black" />
<rect shape-rendering="optimizeSpeed"  x="14" y="196" width="14" height="14" fill="black" />
<rect shape-rendering="optimizeSpeed"  x="28" y="196" width="14" height="14" fill="black" />
<rect shape-rendering="optimizeSpeed"  x="42" y="196" width="14" height="14" fill="black" />
<rect shape-rendering="optimizeSpeed"  x="56" y="196" width="14" height="14" fill="black" />
<rect shape-rendering="optimizeSpeed"  x="70" y="196" width="14" height="14" fill="black" />
<rect shape-rendering="optimizeSpeed"  x="84" y="196" width="14" height="14" fill="black" />
<rect shape-rendering="optimizeSpeed"  x="112" y="196" width="14" height="14" fill="black" />
<rect shape-rendering="optimizeSpeed"  x="126" y="196" width="14" height="14" fill="black" />
<rect shape-rendering="optimizeSpeed"  x="140" y="196" width="14" height="14" fill="black" />
<rect shape-rendering="optimizeSpeed"  x="154" y="196" width="14" height="14" fill="black" />
<rect shape-rendering="optimizeSpeed"  x="182" y="196" width="14" height="14" fill="black" />
<rect shape-rendering="optimizeSpeed"  x="196" y="196" width="14" height="14" fill="black" />
<rect shape-rendering="optimizeSpeed"  x="210" y="196" width="14" height="14" fill="black" />
<rect shape-rendering="optimizeSpeed"  x="252" y="196" width="14" height="14" fill="black" />
<rect shape-rendering="optimizeSpeed"  x="0" y="210" width="14" height="14" fill="black" />
<rect shape-rendering="optimizeSpeed"  x="84" y="210" width="14" height="14" fill="black" />
<rect shape-rendering="optimizeSpeed"  x="112" y="210" width="14" height="14" fill="black" />
<rect shape-rendering="optimizeSpeed"  x="126" y="210" width="14" height="14" fill="black" />
<rect shape-rendering="optimizeSpeed"  x="140" y="210" width="14" height="14" fill="black" />
<rect shape-rendering="optimizeSpeed"  x="154" y="210" width="14" height="14" fill="black" />
<rect shape-rendering="optimizeSpeed"  x="168" y="210" width="14" height="14" fill="black" />
<rect shape-rendering="optimizeSpeed"  x="182" y="210" width="14" height="14" fill="black" />
<rect shape-rendering="optimizeSpeed"  x="210" y="210" width="14" height="14" fill="black" />
<rect shape-rendering="optimizeSpeed"  x="224" y="210" width="14" height="14" fill="black" />
<rect shape-rendering="optimizeSpeed"  x="238" y="210" width="14" height="14" fill="black" />
<rect shape-rendering="optimizeSpeed"  x="0" y="224" width="14" height="14" fill="black" />
<rect shape-rendering="optimizeSpeed"  x="28" y="224" width="14" height="14" fill="black" />
<rect shape-rendering="optimizeSpeed"  x="42" y="224" width="14" height="14" fill="black" />
<rect shape-rendering="optimizeSpeed"  x="56" y="224" width="14" height="14" fill="black" />
<rect shape-rendering="optimizeSpeed"  x="84" y="224" width="14" height="14" fill="black" />
<rect shape-rendering="optimizeSpeed"  x="112" y="224" width="14" height="14" fill="black" />
<rect shape-rendering="optimizeSpeed"  x="126" y="224" width="14" height="14" fill="black" />
<rect shape-rendering="optimizeSpeed"  x="140" y="224" width="14" height="14" fill="black" />
<rect shape-rendering="optimizeSpeed"  x="154" y="224" width="14" height="14" fill="black" />
<rect shape-rendering="optimizeSpeed"  x="182" y="224" width="14" height="14" fill="black" />
<rect shape-rendering="optimizeSpeed"  x="196" y="224" width="14" height="14" fill="black" />
<rect shape-rendering="optimizeSpeed"  x="210" y="224" width="14" height="14" fill="black" />
<rect shape-rendering="optimizeSpeed"  x="252" y="224" width="14" height="14" fill="black" />
<rect shape-rendering="optimizeSpeed"  x="280" y="224" width="14" height="14" fill="black" />
<rect shape-rendering="optimizeSpeed"  x="0" y="238" width="14" height="14" fill="black" />
<rect shape-rendering="optimizeSpeed"  x="28" y="238" width="14" height="14" fill="black" />
<rect shape-rendering="optimizeSpeed"  x="42" y="238" width="14" height="14" fill="black" />
<rect shape-rendering="optimizeSpeed"  x="56" y="238" width="14" height="14" fill="black" />
<rect shape-rendering="optimizeSpeed"  x="84" y="238" width="14" height="14" fill="black" />
<rect shape-rendering="optimizeSpeed"  x="140" y="238" width="14" height="14" fill="black" />
<rect shape-rendering="optimizeSpeed"  x="196" y="238" width="14" height="14" fill="black" />
<rect shape-rendering="optimizeSpeed"  x="252" y="238" width="14" height="14" fill="black" />
<rect shape-rendering="optimizeSpeed"  x="266" y="238" width="14" height="14" fill="black" />
<rect shape-rendering="optimizeSpeed"  x="0" y="252" width="14" height="14" fill="black" />
<rect shape-rendering="optimizeSpeed"  x="28" y="252" width="14" height="14" fill="black" />
<rect shape-rendering="optimizeSpeed"  x="42" y="252" width="14" height="14" fill="black" />
<rect shape-rendering="optimizeSpeed"  x="56" y="252" width="14" height="14" fill="black" />
<rect shape-rendering="optimizeSpeed"  x="84" y="252" width="14" height="14" fill="black" />
<rect shape-rendering="optimizeSpeed"  x="112" y="252" width="14" height="14" fill="black" />
<rect shape-rendering="optimizeSpeed"  x="140" y="252" width="14" height="14" fill="black" />
<rect shape-rendering="optimizeSpeed"  x="168" y="252" width="14" height="14" fill="black" />
<rect shape-rendering="optimizeSpeed"  x="224" y="252" width="14" height="14" fill="black" />
<rect shape-rendering="optimizeSpeed"  x="280" y="252" width="14" height="14" fill="black" />
<rect shape-rendering="optimizeSpeed"  x="0" y="266" width="14" height="14" fill="black" />
<rect shape-rendering="optimizeSpeed"  x="84" y="266" width="14" height="14" fill="black" />
<rect shape-rendering="optimizeSpeed"  x="112" y="266" width="14" height="14" fill="black" />
<rect shape-rendering="optimizeSpeed"  x="126" y="266" width="14" height="14" fill="black" />
<rect shape-rendering="optimizeSpeed"  x="196" y="266" width="14" height="14" fill="black" />
<rect shape-rendering="optimizeSpeed"  x="252" y="266" width="14" height="14" fill="black" />
<rect shape-rendering="optimizeSpeed"  x="266" y="266" width="14" height="14" fill="black" />
<rect shape-rendering="optimizeSpeed"  x="280" y="266" width="14" height="14" fill="black" />
<rect shape-rendering="optimizeSpeed"  x="0" y="280" width="14" height="14" fill="black" />
<rect shape-rendering="optimizeSpeed"  x="14" y="280" width="14" height="14" fill="black" />
<rect shape-rendering="optimizeSpeed"  x="28" y="280" width="14" height="14" fill="black" />
<rect shape-rendering="optimizeSpeed"  x="42" y="280" width="14" height="14" fill="black" />
<rect shape-rendering="optimizeSpeed"  x="56" y="280" width="14" height="14" fill="black" />
<rect shape-rendering="optimizeSpeed"  x="70" y="280" width="14" height="14" fill="black" />
<rect shape-rendering="optimizeSpeed"  x="84" y="280" width="14" height="14" fill="black" />
<rect shape-rendering="optimizeSpeed"  x="112" y="280" width="14" height="14" fill="black" />
<rect shape-rendering="optimizeSpeed"  x="168" y="280" width="14" height="14" fill="black" />
<rect shape-rendering="optimizeSpeed"  x="196" y="280" width="14" height="14" fill="black" />
<rect shape-rendering="optimizeSpeed"  x="224" y="280" width="14" height="14" fill="black" />
<rect shape-rendering="optimizeSpeed"  x="252" y="280" width="14" height="14" fill="black" />
<rect shape-rendering="optimizeSpeed"  x="280" y="280" width="14" height="14" fill="black" /></svg>